<svg xmlns="http://www.w3.org/2000/svg" viewBox="0 0 32 32" fill="none">
  <path d="M18.3 5.2c-5.2 0-9.1 3.9-9.1 9.2 0 3.7 1.7 5.6 3.2 7.1 1.2 1.3 2.2 2.3 2.2 4.5" stroke="#000" stroke-width="2.4" stroke-linecap="round"/>
  <path d="M18.1 9.3c3.1 0 5.4 2.3 5.4 5.4 0 2.2-1 3.7-2.1 4.8-1.2 1.2-2.1 2-2.1 3.5 0 1.4.9 2.5 2.3 2.5 2.5 0 4.6-2.9 4.6-6.7" stroke="#000" stroke-width="2.4" stroke-linecap="round"/>
  <path d="M13.6 14.5c.5-1.7 1.8-2.8 3.6-2.8 2.1 0 3.8 1.6 3.8 3.8 0 1.8-1.1 2.8-2.1 3.7-.9.8-1.6 1.5-1.6 2.7" stroke="#000" stroke-width="2.4" stroke-linecap="round"/>
  <path d="M14.7 26.7c.7.8 1.7 1.2 2.8 1.2" stroke="#000" stroke-width="2.4" stroke-linecap="round"/>
</svg>
